<?xml version="1.0" standalone="no"?>
<!DOCTYPE svg PUBLIC "-//W3C//DTD SVG 20010904//EN"
 "http://www.w3.org/TR/2001/REC-SVG-20010904/DTD/svg10.dtd">
<svg version="1.0" xmlns="http://www.w3.org/2000/svg"
 width="512.000000pt" height="512.000000pt" viewBox="0 0 512.000000 512.000000"
 preserveAspectRatio="xMidYMid meet">

<g transform="translate(0.000000,512.000000) scale(0.100000,-0.100000)"
fill="#000000" stroke="none">
<path d="M1259 4711 l-29 -29 0 -671 0 -670 -246 -3 c-245 -3 -246 -3 -265
-27 -18 -22 -19 -49 -19 -697 l0 -674 -285 0 -286 0 -24 -25 -25 -24 0 -683
c0 -641 2 -685 19 -723 22 -49 48 -73 98 -91 55 -19 1300 -20 1356 0 31 11 43
11 75 0 30 -11 321 -13 1604 -14 1079 0 1583 3 1617 11 65 14 123 56 158 116
l28 48 0 1565 c0 1508 -1 1566 -19 1600 -26 49 -64 88 -111 113 -38 21 -55 22
-342 25 -167 2 -304 4 -305 5 -1 1 -4 188 -7 415 l-6 414 -28 24 -28 24 -1450
0 -1451 0 -29 -29z m441 -375 c0 -251 6 -298 40 -316 25 -13 545 -13 570 0 34
18 40 65 40 316 l0 244 58 0 c31 0 101 -3 155 -7 l97 -6 0 -354 0 -353 -231 0
c-154 0 -245 -4 -273 -12 -56 -17 -141 -100 -155 -153 -6 -22 -11 -111 -11
-198 l0 -157 -297 2 -298 3 -3 618 -2 617 155 0 155 0 0 -244z m480 39 l0
-205 -155 0 -155 0 0 205 0 205 155 0 155 0 0 -205z m950 -47 c0 -276 4 -296
55 -312 17 -6 31 -11 33 -12 1 0 0 -9 -4 -18 -5 -14 -28 -16 -176 -16 -166 0
-169 0 -193 -25 l-25 -24 0 329 0 330 155 0 155 0 0 -252z m480 54 l0 -199
-107 -6 c-58 -4 -130 -7 -160 -7 l-53 0 0 198 c0 109 3 202 7 205 3 4 75 7
160 7 l153 0 0 -198z m393 192 l77 -7 0 -298 0 -299 -105 0 c-98 0 -105 1
-116 23 -6 12 -29 43 -50 69 l-39 47 0 229 c0 126 3 232 7 235 8 9 127 9 226
1z m-399 -566 c52 -16 111 -75 127 -128 20 -66 32 -70 211 -70 l158 0 0 -99
c0 -54 -3 -113 -6 -130 l-6 -31 -554 0 -554 0 0 130 0 130 154 0 c138 0 156 2
179 20 14 11 28 33 32 50 9 42 73 109 120 125 50 18 86 18 139 3z m-784 -438
c0 -126 1 -132 25 -155 l24 -25 665 0 c365 0 672 3 681 6 34 13 45 59 45 184
l0 120 281 0 281 0 29 -29 29 -29 0 -1521 0 -1520 -24 -28 -24 -28 -1312 -3
-1311 -2 -30 29 -29 29 0 1524 c1 1181 3 1527 13 1539 28 36 47 38 355 39
l302 0 0 -130z m-1650 -640 c0 -262 5 -298 45 -314 9 -3 136 -6 283 -6 259 0
266 1 289 22 23 21 23 22 23 285 l0 263 90 0 90 0 0 -620 0 -620 -562 2 -563
3 -3 618 -2 617 155 0 155 0 0 -250z m480 45 l0 -205 -160 0 -160 0 0 205 0
205 160 0 160 0 0 -205z m-1098 -1454 c3 -259 3 -259 27 -285 l24 -26 267 0
c255 0 268 1 294 21 l26 20 0 265 0 264 155 0 155 0 0 -614 0 -614 -162 -7
c-90 -3 -372 -5 -628 -3 l-465 3 -3 618 -2 617 154 0 155 0 3 -259z m478 54
l0 -205 -155 0 -155 0 0 205 0 205 155 0 155 0 0 -205z m960 -392 c0 -329 3
-608 6 -621 l6 -23 -163 3 -164 3 -3 618 -2 617 160 0 160 0 0 -597z"/>
<path d="M3475 3945 c-17 -16 -25 -35 -25 -60 0 -83 94 -117 153 -54 34 37 34
69 1 108 -34 41 -92 44 -129 6z"/>
<path d="M2730 3168 c-25 -13 -55 -38 -67 -57 -22 -32 -23 -43 -23 -226 0
-183 1 -194 23 -226 12 -18 38 -44 57 -57 34 -23 39 -23 235 -20 193 3 201 4
234 27 52 37 71 90 71 202 l0 95 90 83 c79 72 90 87 90 116 0 39 -25 72 -60
80 -27 6 -48 -4 -104 -49 l-37 -29 -32 31 c-18 17 -45 36 -60 41 -16 6 -103
11 -201 11 -158 0 -175 -2 -216 -22z m133 -148 c-27 -11 -43 -40 -43 -77 0
-21 19 -47 87 -115 l88 -88 -98 0 -97 0 0 145 0 145 43 -1 c34 0 38 -2 20 -9z
m237 -13 c0 -13 -14 -36 -30 -52 l-30 -29 -33 30 c-17 17 -45 40 -61 52 l-29
22 92 0 c88 0 91 -1 91 -23z m0 -257 c0 -5 -5 -10 -11 -10 -5 0 -7 5 -4 10 3
6 8 10 11 10 2 0 4 -4 4 -10z"/>
<path d="M3521 3094 c-12 -15 -21 -37 -21 -49 0 -12 9 -34 21 -49 l20 -26 429
0 429 0 20 26 c12 15 21 37 21 49 0 12 -9 34 -21 49 l-20 26 -429 0 -429 0
-20 -26z"/>
<path d="M3533 2785 c-44 -31 -37 -111 13 -134 17 -8 152 -11 435 -11 l410 0
24 25 c16 15 25 36 25 55 0 19 -9 40 -25 55 l-24 25 -418 0 c-353 0 -422 -2
-440 -15z"/>
<path d="M2735 2404 c-88 -46 -95 -67 -95 -292 0 -180 1 -191 23 -223 12 -18
38 -44 57 -57 34 -23 39 -23 235 -20 193 3 201 4 234 27 52 37 71 89 71 202
l0 96 90 82 c80 74 90 86 90 117 0 42 -37 84 -73 84 -14 0 -48 -19 -76 -41
l-52 -42 -32 31 c-18 17 -45 36 -60 41 -16 6 -105 11 -205 11 -141 0 -183 -3
-207 -16z m128 -154 c-27 -11 -43 -40 -43 -76 0 -20 21 -48 87 -115 l87 -89
-97 0 -97 0 0 145 0 145 43 -1 c34 0 38 -2 20 -9z m237 -13 c0 -13 -14 -36
-30 -52 l-30 -29 -33 30 c-17 17 -45 40 -61 52 l-29 22 92 0 c88 0 91 -1 91
-23z m0 -257 c0 -5 -5 -10 -11 -10 -5 0 -7 5 -4 10 3 6 8 10 11 10 2 0 4 -4 4
-10z"/>
<path d="M3554 2350 c-28 -11 -54 -48 -54 -78 0 -12 11 -34 25 -47 l24 -25
425 0 425 0 20 26 c28 35 26 67 -3 101 l-24 28 -409 2 c-224 1 -418 -2 -429
-7z"/>
<path d="M3533 2015 c-45 -32 -36 -113 16 -134 19 -8 152 -11 440 -9 l413 3
19 24 c26 32 24 77 -6 106 l-24 25 -418 0 c-353 0 -422 -2 -440 -15z"/>
<path d="M2740 1639 c-14 -6 -36 -20 -48 -32 -48 -45 -52 -64 -52 -265 0 -180
1 -191 23 -223 12 -18 38 -44 57 -57 34 -23 39 -23 235 -20 193 3 201 4 234
27 52 38 71 89 71 202 l0 97 90 82 c83 76 90 85 90 120 0 30 -6 43 -26 59 -39
30 -65 26 -123 -20 l-52 -41 -24 26 c-46 49 -79 56 -272 55 -98 0 -189 -5
-203 -10z m103 -171 c-48 -54 -37 -87 55 -180 l66 -68 -82 0 -82 0 0 135 0
135 32 0 31 0 -20 -22z m255 -4 c2 -14 -8 -29 -30 -46 l-34 -26 -52 49 -51 50
82 -3 c75 -3 82 -5 85 -24z"/>
<path d="M3554 1580 c-28 -11 -54 -48 -54 -78 0 -12 11 -34 25 -47 l24 -25
421 0 421 0 24 25 c32 31 32 66 1 102 l-24 28 -409 2 c-224 1 -418 -2 -429 -7z"/>
<path d="M3525 1235 c-39 -38 -27 -102 22 -124 16 -7 152 -11 424 -11 331 0
405 3 428 15 48 24 56 81 16 120 l-24 25 -421 0 -421 0 -24 -25z"/>
</g>
</svg>
