<?xml version="1.0" standalone="no"?>
<!DOCTYPE svg PUBLIC "-//W3C//DTD SVG 20010904//EN"
 "http://www.w3.org/TR/2001/REC-SVG-20010904/DTD/svg10.dtd">
<svg version="1.0" xmlns="http://www.w3.org/2000/svg"
 width="512.000000pt" height="512.000000pt" viewBox="0 0 512.000000 512.000000"
 preserveAspectRatio="xMidYMid meet">

<g transform="translate(0.000000,512.000000) scale(0.100000,-0.100000)"
fill="#000000" stroke="none">
<path d="M2722 5113 c-33 -13 -42 -60 -42 -211 l0 -149 -52 -6 c-56 -7 -89
-26 -121 -70 -20 -25 -20 -46 -21 -754 -1 -711 -1 -729 19 -762 25 -43 78 -71
132 -71 l43 0 0 -209 c0 -205 0 -210 23 -237 28 -32 78 -36 108 -8 18 16 19
34 19 236 l0 218 45 0 c52 0 89 16 125 55 l25 27 3 337 c3 318 2 339 -16 361
-27 34 -78 32 -109 -4 l-23 -27 0 -300 0 -299 -120 0 -120 0 0 680 0 680 120
0 120 0 0 -241 0 -241 30 -30 c25 -24 36 -29 58 -24 61 15 62 22 62 313 0 290
-2 302 -60 343 -18 13 -53 24 -85 27 l-55 6 0 163 0 163 -26 20 c-26 20 -55
25 -82 14z"/>
<path d="M3592 4757 c-20 -21 -22 -35 -24 -187 l-3 -165 -172 -3 -172 -2 -20
-27 c-27 -34 -26 -56 3 -90 l24 -28 171 -3 171 -3 0 -155 0 -154 -42 0 c-55 0
-107 -26 -135 -69 l-23 -34 0 -481 c0 -462 1 -482 20 -514 28 -46 76 -72 133
-72 l47 0 0 -314 0 -315 26 -20 c35 -28 69 -26 99 4 l25 24 0 311 0 310 43 0
c61 0 108 28 135 80 22 44 22 47 22 504 0 444 -1 461 -21 502 -23 49 -82 84
-142 84 l-37 0 0 155 0 155 490 0 c459 0 493 -1 540 -19 73 -28 131 -80 171
-153 l34 -63 3 -1328 2 -1327 -2400 0 -2400 0 2 1324 3 1323 35 69 c25 50 49
79 85 106 93 71 62 68 827 68 l688 0 0 -69 0 -69 -55 -4 c-64 -5 -102 -29
-127 -79 -16 -31 -18 -76 -18 -504 0 -428 2 -473 18 -504 25 -50 63 -74 127
-79 l55 -4 0 -342 c0 -370 1 -377 55 -390 29 -7 79 15 89 39 3 9 6 169 6 355
l0 338 55 4 c64 5 102 29 127 79 16 31 18 76 18 504 0 428 -2 473 -18 504 -25
50 -63 74 -127 79 l-55 4 0 69 0 68 170 3 c159 3 171 4 191 25 27 26 28 77 3
104 -16 17 -33 19 -191 19 l-173 0 0 29 c0 43 -9 60 -41 77 -55 28 -109 -8
-109 -73 l0 -33 -700 0 c-683 0 -702 -1 -763 -21 -156 -52 -270 -174 -312
-336 -13 -49 -15 -245 -15 -1430 0 -985 3 -1387 11 -1425 29 -135 129 -262
253 -323 39 -19 95 -40 125 -45 32 -6 293 -10 642 -10 l589 0 0 -188 0 -188
-122 -142 -122 -142 -59 0 c-70 0 -92 -10 -105 -48 -12 -34 6 -85 33 -96 9 -3
597 -6 1306 -6 l1290 0 24 25 c14 13 25 36 25 50 0 14 -11 37 -25 50 -20 21
-34 25 -82 25 l-59 0 -122 142 -122 142 0 188 0 188 589 0 c349 0 610 4 642
10 180 33 339 189 378 368 8 38 11 440 11 1425 0 1185 -2 1381 -15 1430 -42
162 -156 284 -312 336 -60 20 -83 21 -562 21 l-500 0 -3 171 c-3 166 -4 171
-27 190 -31 26 -73 24 -99 -4z m1353 -3569 c-23 -77 -102 -163 -183 -201 -47
-22 -51 -22 -865 -27 l-819 -5 -19 -24 c-26 -32 -24 -67 6 -96 23 -24 30 -25
150 -25 l125 0 0 -165 0 -165 -105 0 c-99 0 -107 -2 -130 -25 -30 -30 -32 -64
-4 -99 20 -26 22 -26 149 -26 l129 0 77 -87 76 -88 -486 -3 c-267 -1 -705 -1
-972 0 l-486 3 76 88 77 87 129 0 c127 0 129 0 149 26 28 35 26 69 -4 99 -23
23 -31 25 -130 25 l-105 0 0 165 0 165 522 0 522 0 23 22 c31 29 31 77 0 106
l-23 22 -1209 2 -1210 3 -47 22 c-81 38 -160 124 -183 201 l-6 22 2391 0 2391
0 -6 -22z"/>
<path d="M943 3876 c-25 -21 -28 -31 -31 -100 l-4 -76 -40 0 c-54 0 -103 -25
-128 -65 -19 -30 -20 -49 -20 -262 0 -227 0 -230 23 -251 29 -27 67 -28 98 -3
24 19 24 23 27 225 l3 206 120 0 119 0 0 -435 0 -435 -120 0 -120 0 0 100 c0
94 -2 103 -25 125 -30 31 -77 33 -106 4 -19 -19 -20 -30 -17 -159 3 -132 4
-140 28 -166 31 -33 79 -54 125 -54 l35 0 0 -195 c0 -219 8 -259 56 -271 37
-9 76 6 91 36 9 18 13 85 13 226 l0 201 51 5 c53 5 89 26 123 72 21 27 21 38
21 509 0 464 -1 483 -20 516 -25 43 -78 71 -132 71 l-43 0 0 71 c0 65 -2 73
-29 100 -36 35 -61 37 -98 5z"/>
<path d="M4390 3507 c-13 -7 -31 -25 -40 -40 -13 -24 -13 -30 0 -54 8 -16 32
-36 53 -47 l38 -18 -168 -90 c-92 -50 -176 -97 -185 -106 -24 -21 -24 -84 0
-105 37 -33 79 -21 257 77 94 51 171 93 172 91 2 -1 -5 -20 -13 -43 -14 -34
-15 -46 -5 -71 17 -40 60 -57 98 -39 23 11 37 35 80 143 29 72 52 138 53 147
0 37 -45 68 -177 118 -73 27 -134 50 -135 50 -2 0 -14 -6 -28 -13z"/>
<path d="M2495 2299 c-418 -226 -766 -413 -772 -416 -7 -3 -13 -1 -13 5 0 23
-85 227 -102 244 -10 10 -29 18 -42 18 -28 0 -1073 -445 -1098 -468 -11 -9
-18 -29 -18 -52 0 -39 18 -62 56 -74 14 -4 171 58 514 204 328 140 496 207
500 199 4 -6 24 -57 45 -112 44 -118 66 -147 109 -147 36 0 1619 848 1654 886
12 14 22 36 22 50 0 31 -42 74 -72 74 -13 -1 -365 -185 -783 -411z"/>
</g>
</svg>
